<svg xmlns="http://www.w3.org/2000/svg" viewBox="0 0 600 500" fill="none" aria-hidden="true">
  <defs>
    <linearGradient id="bgGrad" x1="0%" y1="0%" x2="100%" y2="100%">
      <stop offset="0%" stop-color="#F6F6F4"/>
      <stop offset="100%" stop-color="#E8EDF0"/>
    </linearGradient>
    <linearGradient id="goldGrad" x1="0%" y1="0%" x2="100%" y2="100%">
      <stop offset="0%" stop-color="#D4B87A"/>
      <stop offset="100%" stop-color="#B8954A"/>
    </linearGradient>
    <filter id="softShadow" x="-20%" y="-20%" width="140%" height="140%">
      <feDropShadow dx="0" dy="12" stdDeviation="20" flood-color="#1A3344" flood-opacity="0.08"/>
    </filter>
  </defs>
  <rect width="600" height="500" rx="24" fill="url(#bgGrad)"/>
  <g opacity="0.15" stroke="#1A3344" stroke-width="0.5">
    <line x1="50" y1="80" x2="550" y2="80"/><line x1="50" y1="160" x2="550" y2="160"/>
    <line x1="50" y1="240" x2="550" y2="240"/><line x1="50" y1="320" x2="550" y2="320"/>
    <line x1="50" y1="400" x2="550" y2="400"/><line x1="120" y1="40" x2="120" y2="460"/>
    <line x1="240" y1="40" x2="240" y2="460"/><line x1="360" y1="40" x2="360" y2="460"/>
    <line x1="480" y1="40" x2="480" y2="460"/>
  </g>
  <g filter="url(#softShadow)">
    <rect x="140" y="100" width="320" height="220" rx="16" fill="#FAFAFA" stroke="#1A3344" stroke-width="1.5" opacity="0.9"/>
    <rect x="160" y="120" width="120" height="80" rx="8" fill="none" stroke="#1A3344" stroke-width="1.2"/>
    <circle cx="220" cy="160" r="25" fill="none" stroke="#1A3344" stroke-width="1"/>
    <line x1="195" y1="160" x2="245" y2="160" stroke="#B8954A" stroke-width="1.5"/>
    <line x1="220" y1="135" x2="220" y2="185" stroke="#B8954A" stroke-width="1.5"/>
    <rect x="300" y="130" width="140" height="60" rx="6" fill="none" stroke="#1A3344" stroke-width="1"/>
    <path d="M310 170 L330 150 L350 165 L370 140 L390 160 L420 145" stroke="#B8954A" stroke-width="2" fill="none"/>
    <rect x="160" y="220" width="280" height="80" rx="8" fill="#1A3344" opacity="0.05"/>
    <text x="300" y="255" text-anchor="middle" font-family="monospace" font-size="11" fill="#1A3344" opacity="0.6">BLUEPRINT v2.4  DISPOSITIVO MÉDICO</text>
    <text x="300" y="275" text-anchor="middle" font-family="monospace" font-size="9" fill="#1A3344" opacity="0.4">ISO 13485 | IEC 60601 | ANVISA</text>
  </g>
  <g transform="translate(380, 280)" filter="url(#softShadow)">
    <rect x="0" y="0" width="140" height="160" rx="20" fill="#1A3344"/>
    <rect x="20" y="30" width="100" height="70" rx="10" fill="#FAFAFA" opacity="0.95"/>
    <path d="M35 75 L50 60 L65 70 L80 50 L95 65 L115 55" stroke="url(#goldGrad)" stroke-width="2.5" fill="none"/>
    <rect x="45" y="115" width="50" height="8" rx="4" fill="#B8954A" opacity="0.7"/>
    <rect x="55" y="130" width="30" height="6" rx="3" fill="#FAFAFA" opacity="0.3"/>
  </g>
  <circle cx="100" cy="380" r="40" fill="none" stroke="#B8954A" stroke-width="1" opacity="0.4"/>
  <circle cx="100" cy="380" r="55" fill="none" stroke="#1A3344" stroke-width="0.5" opacity="0.2"/>
  <path d="M70 380 Q100 350 130 380 Q100 410 70 380" fill="none" stroke="#B8954A" stroke-width="1.5" opacity="0.5"/>
</svg>
